<svg width="24" height="24" viewBox="0 0 24 24" fill="none" xmlns="http://www.w3.org/2000/svg">
<path fill-rule="evenodd" clip-rule="evenodd" d="M15.22 6.268C15.2912 6.08243 15.4331 5.93269 15.6146 5.85169C15.7961 5.77069 16.0023 5.76505 16.188 5.836L22.13 8.116C22.222 8.15133 22.3062 8.20446 22.3777 8.27235C22.4492 8.34024 22.5066 8.42155 22.5466 8.51164C22.5866 8.60174 22.6085 8.69884 22.611 8.79739C22.6135 8.89594 22.5965 8.99402 22.561 9.086L20.281 15.027C20.2477 15.1215 20.1957 15.2083 20.1282 15.2824C20.0608 15.3565 19.9792 15.4163 19.8882 15.4583C19.7972 15.5003 19.6988 15.5236 19.5986 15.5269C19.4985 15.5303 19.3987 15.5135 19.3052 15.4776C19.2116 15.4417 19.1262 15.3875 19.054 15.318C18.9818 15.2486 18.9242 15.1654 18.8846 15.0733C18.8451 14.9813 18.8244 14.8822 18.8238 14.782C18.8232 14.6818 18.8426 14.5825 18.881 14.49L20.511 10.239L19.425 10.722C17.0667 11.7676 15.1416 13.5952 13.975 15.896C13.9213 16.0015 13.8434 16.0929 13.7476 16.1625C13.6518 16.2321 13.5409 16.2781 13.4239 16.2966C13.307 16.3152 13.1873 16.3058 13.0747 16.2691C12.9621 16.2325 12.8597 16.1698 12.776 16.086L9 12.31L2.78 18.53C2.71134 18.6037 2.62854 18.6628 2.53654 18.7038C2.44454 18.7448 2.34523 18.7668 2.24452 18.7686C2.14382 18.7704 2.04379 18.7518 1.9504 18.7141C1.85702 18.6764 1.77218 18.6203 1.70096 18.549C1.62974 18.4778 1.5736 18.393 1.53588 18.2996C1.49816 18.2062 1.47963 18.1062 1.48141 18.0055C1.48319 17.9048 1.50523 17.8055 1.54622 17.7135C1.58721 17.6215 1.64631 17.5387 1.72 17.47L8.47 10.72C8.61063 10.5796 8.80125 10.5007 9 10.5007C9.19875 10.5007 9.38938 10.5796 9.53 10.72L13.136 14.325C14.4812 12.1297 16.4622 10.3953 18.816 9.352L19.902 8.868L15.651 7.237C15.5589 7.20177 15.4746 7.14871 15.403 7.08086C15.3314 7.01302 15.2739 6.93171 15.2338 6.84161C15.1937 6.75151 15.1717 6.65438 15.1692 6.55578C15.1666 6.45718 15.1836 6.35905 15.219 6.267L15.22 6.268Z" fill="#003E9C"/>
</svg>
