<svg width="24" height="24" viewBox="0 0 24 24" fill="none" xmlns="http://www.w3.org/2000/svg">
<path d="M10.9999 17.4989C10.9983 16.2583 11.3534 15.0434 12.0229 13.9989H4.25293C3.95742 13.9988 3.66478 14.0569 3.39174 14.1699C3.11869 14.2829 2.8706 14.4487 2.66165 14.6576C2.45269 14.8666 2.28696 15.1147 2.17393 15.3877C2.06091 15.6608 2.0028 15.9534 2.00293 16.2489V17.1679C2.00293 17.7399 2.18293 18.2979 2.51393 18.7639C4.05593 20.9279 6.57993 21.9989 9.99993 21.9989C10.9319 21.9989 11.7969 21.9189 12.5919 21.7589C11.5641 20.5786 10.9985 19.066 10.9999 17.5009V17.4989ZM14.9999 7.00391C14.9999 5.67782 14.4731 4.40605 13.5355 3.46837C12.5978 2.53069 11.326 2.00391 9.99993 2.00391C8.67385 2.00391 7.40208 2.53069 6.4644 3.46837C5.52671 4.40605 4.99993 5.67782 4.99993 7.00391C4.99993 8.32999 5.52671 9.60176 6.4644 10.5394C7.40208 11.4771 8.67385 12.0039 9.99993 12.0039C11.326 12.0039 12.5978 11.4771 13.5355 10.5394C14.4731 9.60176 14.9999 8.32999 14.9999 7.00391Z" fill="#091E42"/>
<path d="M23 17.5C23 16.0413 22.4205 14.6424 21.3891 13.6109C20.3576 12.5795 18.9587 12 17.5 12C16.0413 12 14.6424 12.5795 13.6109 13.6109C12.5795 14.6424 12 16.0413 12 17.5C12 18.9587 12.5795 20.3576 13.6109 21.3891C14.6424 22.4205 16.0413 23 17.5 23C18.9587 23 20.3576 22.4205 21.3891 21.3891C22.4205 20.3576 23 18.9587 23 17.5ZM17.41 14.008L17.5 14L17.59 14.008C17.6899 14.0263 17.7819 14.0745 17.8537 14.1463C17.9255 14.2181 17.9737 14.3101 17.992 14.41L18 14.5V17H20.504L20.594 17.008C20.6939 17.0263 20.7859 17.0745 20.8577 17.1463C20.9295 17.2181 20.9777 17.3101 20.996 17.41L21.004 17.5L20.996 17.59C20.9777 17.6899 20.9295 17.7819 20.8577 17.8537C20.7859 17.9255 20.6939 17.9737 20.594 17.992L20.504 18H18V20.5L17.992 20.59C17.9737 20.6899 17.9255 20.7819 17.8537 20.8537C17.7819 20.9255 17.6899 20.9737 17.59 20.992L17.5 21L17.41 20.992C17.3101 20.9737 17.2181 20.9255 17.1463 20.8537C17.0745 20.7819 17.0263 20.6899 17.008 20.59L17 20.5V18H14.504L14.414 17.992C14.3141 17.9737 14.2221 17.9255 14.1503 17.8537C14.0785 17.7819 14.0303 17.6899 14.012 17.59L14.004 17.5L14.012 17.41C14.0303 17.3101 14.0785 17.2181 14.1503 17.1463C14.2221 17.0745 14.3141 17.0263 14.414 17.008L14.504 17H17V14.5L17.008 14.41C17.0263 14.3101 17.0745 14.2181 17.1463 14.1463C17.2181 14.0745 17.3101 14.0263 17.41 14.008Z" fill="#091E42"/>
</svg>
