<svg width="24" height="24" viewBox="0 0 24 24" fill="none" xmlns="http://www.w3.org/2000/svg">
<path d="M6.25 3C5.38805 3 4.5614 3.34241 3.9519 3.9519C3.34241 4.5614 3 5.38805 3 6.25V12.022C4.04457 11.3528 5.25948 10.9981 6.5 11C8.248 11 9.834 11.69 11.002 12.812C11.0005 12.7914 10.9999 12.7707 11 12.75V6.75C11 6.55109 11.079 6.36032 11.2197 6.21967C11.3603 6.07902 11.5511 6 11.75 6C11.9489 6 12.1397 6.07902 12.2803 6.21967C12.421 6.36032 12.5 6.55109 12.5 6.75V12H16.25C16.4489 12 16.6397 12.079 16.7803 12.2197C16.921 12.3603 17 12.5511 17 12.75C17 12.9489 16.921 13.1397 16.7803 13.2803C16.6397 13.421 16.4489 13.5 16.25 13.5H11.75C11.7044 13.5001 11.6589 13.4961 11.614 13.488C12.5139 14.6315 13.0022 16.0449 13 17.5C13.0019 18.7405 12.6472 19.9554 11.978 21H17.75C18.612 21 19.4386 20.6576 20.0481 20.0481C20.6576 19.4386 21 18.612 21 17.75V6.25C21 5.38805 20.6576 4.5614 20.0481 3.9519C19.4386 3.34241 18.612 3 17.75 3H6.25Z" fill="#091E42"/>
<path d="M12 17.5C12 16.7777 11.8577 16.0625 11.5813 15.3952C11.3049 14.728 10.8998 14.1216 10.3891 13.6109C9.87837 13.1002 9.27205 12.6951 8.60476 12.4187C7.93747 12.1423 7.22227 12 6.5 12C5.77773 12 5.06253 12.1423 4.39524 12.4187C3.72795 12.6951 3.12163 13.1002 2.61091 13.6109C2.10019 14.1216 1.69506 14.728 1.41866 15.3952C1.14226 16.0625 1 16.7777 1 17.5C1 18.9587 1.57946 20.3576 2.61091 21.3891C3.64236 22.4205 5.04131 23 6.5 23C7.95869 23 9.35764 22.4205 10.3891 21.3891C11.4205 20.3576 12 18.9587 12 17.5ZM7 18L7.001 20.503C7.001 20.6356 6.94832 20.7628 6.85455 20.8566C6.76079 20.9503 6.63361 21.003 6.501 21.003C6.36839 21.003 6.24121 20.9503 6.14745 20.8566C6.05368 20.7628 6.001 20.6356 6.001 20.503V18H3.496C3.36339 18 3.23621 17.9473 3.14245 17.8536C3.04868 17.7598 2.996 17.6326 2.996 17.5C2.996 17.3674 3.04868 17.2402 3.14245 17.1464C3.23621 17.0527 3.36339 17 3.496 17H6V14.5C6 14.3674 6.05268 14.2402 6.14645 14.1464C6.24021 14.0527 6.36739 14 6.5 14C6.63261 14 6.75979 14.0527 6.85355 14.1464C6.94732 14.2402 7 14.3674 7 14.5V17H9.503C9.63561 17 9.76278 17.0527 9.85655 17.1464C9.95032 17.2402 10.003 17.3674 10.003 17.5C10.003 17.6326 9.95032 17.7598 9.85655 17.8536C9.76278 17.9473 9.63561 18 9.503 18H7Z" fill="#091E42"/>
</svg>
