<svg width="24" height="24" viewBox="0 0 24 24" fill="none" xmlns="http://www.w3.org/2000/svg">
<path d="M3 5.25C3 4.65326 3.23705 4.08097 3.65901 3.65901C4.08097 3.23705 4.65326 3 5.25 3H18.75C19.3467 3 19.919 3.23705 20.341 3.65901C20.7629 4.08097 21 4.65326 21 5.25V12.022C19.752 11.2238 18.2687 10.8759 16.7959 11.0359C15.3232 11.1958 13.9492 11.8541 12.9017 12.9017C11.8541 13.9492 11.1958 15.3232 11.0359 16.7959C10.8759 18.2687 11.2238 19.752 12.022 21H5.25C4.65326 21 4.08097 20.7629 3.65901 20.341C3.23705 19.919 3 19.3467 3 18.75V5.25ZM10.28 8.78C10.3537 8.71134 10.4128 8.62854 10.4538 8.53654C10.4948 8.44454 10.5168 8.34522 10.5186 8.24452C10.5204 8.14382 10.5018 8.04379 10.4641 7.9504C10.4264 7.85701 10.3703 7.77218 10.299 7.70096C10.2278 7.62974 10.143 7.5736 10.0496 7.53588C9.95621 7.49816 9.85618 7.47963 9.75548 7.48141C9.65478 7.48319 9.55546 7.50523 9.46346 7.54622C9.37146 7.58721 9.28866 7.64631 9.22 7.72L7.75 9.19L7.28 8.72C7.13783 8.58752 6.94978 8.5154 6.75548 8.51882C6.56118 8.52225 6.37579 8.60097 6.23838 8.73838C6.10097 8.87579 6.02225 9.06118 6.01883 9.25548C6.0154 9.44978 6.08752 9.63783 6.22 9.78L7.22 10.78C7.36063 10.9205 7.55125 10.9993 7.75 10.9993C7.94875 10.9993 8.13937 10.9205 8.28 10.78L10.28 8.78ZM10.28 14.28C10.3537 14.2113 10.4128 14.1285 10.4538 14.0365C10.4948 13.9445 10.5168 13.8452 10.5186 13.7445C10.5204 13.6438 10.5018 13.5438 10.4641 13.4504C10.4264 13.357 10.3703 13.2722 10.299 13.201C10.2278 13.1297 10.143 13.0736 10.0496 13.0359C9.95621 12.9982 9.85618 12.9796 9.75548 12.9814C9.65478 12.9832 9.55546 13.0052 9.46346 13.0462C9.37146 13.0872 9.28866 13.1463 9.22 13.22L7.75 14.69L7.28 14.22C7.13783 14.0875 6.94978 14.0154 6.75548 14.0188C6.56118 14.0223 6.37579 14.101 6.23838 14.2384C6.10097 14.3758 6.02225 14.5612 6.01883 14.7555C6.0154 14.9498 6.08752 15.1378 6.22 15.28L7.22 16.28C7.36063 16.4205 7.55125 16.4993 7.75 16.4993C7.94875 16.4993 8.13937 16.4205 8.28 16.28L10.28 14.28ZM13.25 8.5C13.0511 8.5 12.8603 8.57902 12.7197 8.71967C12.579 8.86032 12.5 9.05109 12.5 9.25C12.5 9.44891 12.579 9.63968 12.7197 9.78033C12.8603 9.92098 13.0511 10 13.25 10H16.75C16.9489 10 17.1397 9.92098 17.2803 9.78033C17.421 9.63968 17.5 9.44891 17.5 9.25C17.5 9.05109 17.421 8.86032 17.2803 8.71967C17.1397 8.57902 16.9489 8.5 16.75 8.5H13.25ZM23 17.5C23 16.0413 22.4205 14.6424 21.3891 13.6109C20.3576 12.5795 18.9587 12 17.5 12C16.0413 12 14.6424 12.5795 13.6109 13.6109C12.5795 14.6424 12 16.0413 12 17.5C12 18.9587 12.5795 20.3576 13.6109 21.3891C14.6424 22.4205 16.0413 23 17.5 23C18.9587 23 20.3576 22.4205 21.3891 21.3891C22.4205 20.3576 23 18.9587 23 17.5ZM18 18L18.001 20.503C18.001 20.6356 17.9483 20.7628 17.8546 20.8566C17.7608 20.9503 17.6336 21.003 17.501 21.003C17.3684 21.003 17.2412 20.9503 17.1474 20.8566C17.0537 20.7628 17.001 20.6356 17.001 20.503V18H14.496C14.3634 18 14.2362 17.9473 14.1424 17.8536C14.0487 17.7598 13.996 17.6326 13.996 17.5C13.996 17.3674 14.0487 17.2402 14.1424 17.1464C14.2362 17.0527 14.3634 17 14.496 17H17V14.5C17 14.3674 17.0527 14.2402 17.1464 14.1464C17.2402 14.0527 17.3674 14 17.5 14C17.6326 14 17.7598 14.0527 17.8536 14.1464C17.9473 14.2402 18 14.3674 18 14.5V17H20.503C20.6356 17 20.7628 17.0527 20.8566 17.1464C20.9503 17.2402 21.003 17.3674 21.003 17.5C21.003 17.6326 20.9503 17.7598 20.8566 17.8536C20.7628 17.9473 20.6356 18 20.503 18H18Z" fill="#091E42"/>
</svg>
