<svg width="20" height="17" viewBox="0 0 20 17" fill="none" xmlns="http://www.w3.org/2000/svg">
<path fill-rule="evenodd" clip-rule="evenodd" d="M9.02934 0.34434C9.16979 0.484965 9.24868 0.675589 9.24868 0.87434C9.24868 1.07309 9.16979 1.26371 9.02934 1.40434L2.80934 7.62434H18.9993C19.1983 7.62434 19.389 7.70336 19.5297 7.84401C19.6703 7.98466 19.7493 8.17543 19.7493 8.37434C19.7493 8.57325 19.6703 8.76402 19.5297 8.90467C19.389 9.04532 19.1983 9.12434 18.9993 9.12434H2.80934L9.02934 15.3443C9.10303 15.413 9.16213 15.4958 9.20312 15.5878C9.24411 15.6798 9.26616 15.7791 9.26793 15.8798C9.26971 15.9805 9.25118 16.0805 9.21346 16.1739C9.17574 16.2673 9.1196 16.3522 9.04838 16.4234C8.97716 16.4946 8.89233 16.5507 8.79894 16.5885C8.70555 16.6262 8.60552 16.6447 8.50482 16.6429C8.40411 16.6412 8.3048 16.6191 8.2128 16.5781C8.1208 16.5371 8.038 16.478 7.96934 16.4043L0.46934 8.90434C0.32889 8.76371 0.25 8.57309 0.25 8.37434C0.25 8.17559 0.32889 7.98497 0.46934 7.84434L7.96934 0.34434C8.10997 0.20389 8.30059 0.125 8.49934 0.125C8.69809 0.125 8.88871 0.20389 9.02934 0.34434Z" fill="#091E42"/>
</svg>
