<svg width="209" height="209" viewBox="0 0 209 209" fill="none" xmlns="http://www.w3.org/2000/svg">
<g clip-path="url(#clip0_229_6254)">
<path d="M19.5938 182.875H189.406M32.6562 26.125V182.875M124.094 26.125V182.875M176.344 65.3125V182.875M58.7812 58.7812H65.3125M58.7812 84.9062H65.3125M58.7812 111.031H65.3125M91.4375 58.7812H97.9687M91.4375 84.9062H97.9687M91.4375 111.031H97.9687M58.7812 182.875V153.484C58.7812 148.076 63.1702 143.687 68.5781 143.687H88.1719C93.5797 143.687 97.9687 148.076 97.9687 153.484V182.875M26.125 26.125H130.625M124.094 65.3125H182.875M150.219 97.9687H150.288V98.0384H150.219V97.9687ZM150.219 124.094H150.288V124.163H150.219V124.094ZM150.219 150.219H150.288V150.288H150.219V150.219Z" stroke="#C2C7D0" stroke-width="13.0625" stroke-linecap="round" stroke-linejoin="round"/>
<path d="M167.805 149.36V173.216V149.36ZM179.733 161.288H155.877H179.733ZM203.589 161.288C203.589 165.987 202.663 170.64 200.865 174.982C199.067 179.323 196.431 183.268 193.108 186.591C189.785 189.914 185.84 192.549 181.499 194.348C177.158 196.146 172.504 197.072 167.805 197.072C163.106 197.072 158.453 196.146 154.111 194.348C149.77 192.549 145.825 189.914 142.502 186.591C139.179 183.268 136.544 179.323 134.745 174.982C132.947 170.64 132.021 165.987 132.021 161.288C132.021 151.797 135.792 142.696 142.502 135.985C149.213 129.274 158.315 125.504 167.805 125.504C177.296 125.504 186.397 129.274 193.108 135.985C199.819 142.696 203.589 151.797 203.589 161.288Z" fill="#F5F5F5"/>
<path d="M167.805 149.36V173.216M179.733 161.288H155.877M203.589 161.288C203.589 165.987 202.663 170.64 200.865 174.982C199.067 179.323 196.431 183.268 193.108 186.591C189.785 189.914 185.84 192.549 181.499 194.348C177.158 196.146 172.504 197.072 167.805 197.072C163.106 197.072 158.453 196.146 154.111 194.348C149.77 192.549 145.825 189.914 142.502 186.591C139.179 183.268 136.544 179.323 134.745 174.982C132.947 170.64 132.021 165.987 132.021 161.288C132.021 151.797 135.792 142.696 142.502 135.985C149.213 129.274 158.315 125.504 167.805 125.504C177.296 125.504 186.397 129.274 193.108 135.985C199.819 142.696 203.589 151.797 203.589 161.288Z" stroke="#C2C7D0" stroke-width="10.1514" stroke-linecap="round" stroke-linejoin="round"/>
</g>
<defs>
<clipPath id="clip0_229_6254">
<rect width="209" height="209" fill="white"/>
</clipPath>
</defs>
</svg>
