<svg width="24" height="25" viewBox="0 0 24 25" fill="none" xmlns="http://www.w3.org/2000/svg">
<path d="M12.75 13.25C12.75 13.4489 12.671 13.6397 12.5303 13.7803C12.3897 13.921 12.1989 14 12 14C11.8011 14 11.6103 13.921 11.4697 13.7803C11.329 13.6397 11.25 13.4489 11.25 13.25C11.25 13.0511 11.329 12.8603 11.4697 12.7197C11.6103 12.579 11.8011 12.5 12 12.5C12.1989 12.5 12.3897 12.579 12.5303 12.7197C12.671 12.8603 12.75 13.0511 12.75 13.25ZM7.5 16.25C7.69891 16.25 7.88968 16.171 8.03033 16.0303C8.17098 15.8897 8.25 15.6989 8.25 15.5C8.25 15.3011 8.17098 15.1103 8.03033 14.9697C7.88968 14.829 7.69891 14.75 7.5 14.75C7.30109 14.75 7.11032 14.829 6.96967 14.9697C6.82902 15.1103 6.75 15.3011 6.75 15.5C6.75 15.6989 6.82902 15.8897 6.96967 16.0303C7.11032 16.171 7.30109 16.25 7.5 16.25ZM8.25 17.75C8.25 17.9489 8.17098 18.1397 8.03033 18.2803C7.88968 18.421 7.69891 18.5 7.5 18.5C7.30109 18.5 7.11032 18.421 6.96967 18.2803C6.82902 18.1397 6.75 17.9489 6.75 17.75C6.75 17.5511 6.82902 17.3603 6.96967 17.2197C7.11032 17.079 7.30109 17 7.5 17C7.69891 17 7.88968 17.079 8.03033 17.2197C8.17098 17.3603 8.25 17.5511 8.25 17.75ZM9.75 16.25C9.94891 16.25 10.1397 16.171 10.2803 16.0303C10.421 15.8897 10.5 15.6989 10.5 15.5C10.5 15.3011 10.421 15.1103 10.2803 14.9697C10.1397 14.829 9.94891 14.75 9.75 14.75C9.55109 14.75 9.36032 14.829 9.21967 14.9697C9.07902 15.1103 9 15.3011 9 15.5C9 15.6989 9.07902 15.8897 9.21967 16.0303C9.36032 16.171 9.55109 16.25 9.75 16.25ZM10.5 17.75C10.5 17.9489 10.421 18.1397 10.2803 18.2803C10.1397 18.421 9.94891 18.5 9.75 18.5C9.55109 18.5 9.36032 18.421 9.21967 18.2803C9.07902 18.1397 9 17.9489 9 17.75C9 17.5511 9.07902 17.3603 9.21967 17.2197C9.36032 17.079 9.55109 17 9.75 17C9.94891 17 10.1397 17.079 10.2803 17.2197C10.421 17.3603 10.5 17.5511 10.5 17.75ZM12 16.25C12.1989 16.25 12.3897 16.171 12.5303 16.0303C12.671 15.8897 12.75 15.6989 12.75 15.5C12.75 15.3011 12.671 15.1103 12.5303 14.9697C12.3897 14.829 12.1989 14.75 12 14.75C11.8011 14.75 11.6103 14.829 11.4697 14.9697C11.329 15.1103 11.25 15.3011 11.25 15.5C11.25 15.6989 11.329 15.8897 11.4697 16.0303C11.6103 16.171 11.8011 16.25 12 16.25ZM12.75 17.75C12.75 17.9489 12.671 18.1397 12.5303 18.2803C12.3897 18.421 12.1989 18.5 12 18.5C11.8011 18.5 11.6103 18.421 11.4697 18.2803C11.329 18.1397 11.25 17.9489 11.25 17.75C11.25 17.5511 11.329 17.3603 11.4697 17.2197C11.6103 17.079 11.8011 17 12 17C12.1989 17 12.3897 17.079 12.5303 17.2197C12.671 17.3603 12.75 17.5511 12.75 17.75ZM14.25 16.25C14.4489 16.25 14.6397 16.171 14.7803 16.0303C14.921 15.8897 15 15.6989 15 15.5C15 15.3011 14.921 15.1103 14.7803 14.9697C14.6397 14.829 14.4489 14.75 14.25 14.75C14.0511 14.75 13.8603 14.829 13.7197 14.9697C13.579 15.1103 13.5 15.3011 13.5 15.5C13.5 15.6989 13.579 15.8897 13.7197 16.0303C13.8603 16.171 14.0511 16.25 14.25 16.25ZM15 17.75C15 17.9489 14.921 18.1397 14.7803 18.2803C14.6397 18.421 14.4489 18.5 14.25 18.5C14.0511 18.5 13.8603 18.421 13.7197 18.2803C13.579 18.1397 13.5 17.9489 13.5 17.75C13.5 17.5511 13.579 17.3603 13.7197 17.2197C13.8603 17.079 14.0511 17 14.25 17C14.4489 17 14.6397 17.079 14.7803 17.2197C14.921 17.3603 15 17.5511 15 17.75ZM16.5 16.25C16.6989 16.25 16.8897 16.171 17.0303 16.0303C17.171 15.8897 17.25 15.6989 17.25 15.5C17.25 15.3011 17.171 15.1103 17.0303 14.9697C16.8897 14.829 16.6989 14.75 16.5 14.75C16.3011 14.75 16.1103 14.829 15.9697 14.9697C15.829 15.1103 15.75 15.3011 15.75 15.5C15.75 15.6989 15.829 15.8897 15.9697 16.0303C16.1103 16.171 16.3011 16.25 16.5 16.25ZM15 13.25C15 13.4489 14.921 13.6397 14.7803 13.7803C14.6397 13.921 14.4489 14 14.25 14C14.0511 14 13.8603 13.921 13.7197 13.7803C13.579 13.6397 13.5 13.4489 13.5 13.25C13.5 13.0511 13.579 12.8603 13.7197 12.7197C13.8603 12.579 14.0511 12.5 14.25 12.5C14.4489 12.5 14.6397 12.579 14.7803 12.7197C14.921 12.8603 15 13.0511 15 13.25ZM16.5 14C16.6989 14 16.8897 13.921 17.0303 13.7803C17.171 13.6397 17.25 13.4489 17.25 13.25C17.25 13.0511 17.171 12.8603 17.0303 12.7197C16.8897 12.579 16.6989 12.5 16.5 12.5C16.3011 12.5 16.1103 12.579 15.9697 12.7197C15.829 12.8603 15.75 13.0511 15.75 13.25C15.75 13.4489 15.829 13.6397 15.9697 13.7803C16.1103 13.921 16.3011 14 16.5 14Z" fill="#091E42"/>
<path fill-rule="evenodd" clip-rule="evenodd" d="M6.75 2.75C6.94891 2.75 7.13968 2.82902 7.28033 2.96967C7.42098 3.11032 7.5 3.30109 7.5 3.5V5H16.5V3.5C16.5 3.30109 16.579 3.11032 16.7197 2.96967C16.8603 2.82902 17.0511 2.75 17.25 2.75C17.4489 2.75 17.6397 2.82902 17.7803 2.96967C17.921 3.11032 18 3.30109 18 3.5V5H18.75C19.5456 5 20.3087 5.31607 20.8713 5.87868C21.4339 6.44129 21.75 7.20435 21.75 8V19.25C21.75 20.0456 21.4339 20.8087 20.8713 21.3713C20.3087 21.9339 19.5456 22.25 18.75 22.25H5.25C4.45435 22.25 3.69129 21.9339 3.12868 21.3713C2.56607 20.8087 2.25 20.0456 2.25 19.25V8C2.25 7.20435 2.56607 6.44129 3.12868 5.87868C3.69129 5.31607 4.45435 5 5.25 5H6V3.5C6 3.30109 6.07902 3.11032 6.21967 2.96967C6.36032 2.82902 6.55109 2.75 6.75 2.75ZM20.25 11.75C20.25 11.3522 20.092 10.9706 19.8107 10.6893C19.5294 10.408 19.1478 10.25 18.75 10.25H5.25C4.85218 10.25 4.47064 10.408 4.18934 10.6893C3.90804 10.9706 3.75 11.3522 3.75 11.75V19.25C3.75 19.6478 3.90804 20.0294 4.18934 20.3107C4.47064 20.592 4.85218 20.75 5.25 20.75H18.75C19.1478 20.75 19.5294 20.592 19.8107 20.3107C20.092 20.0294 20.25 19.6478 20.25 19.25V11.75Z" fill="#091E42"/>
</svg>
