<svg width="24" height="25" viewBox="0 0 24 25" fill="none" xmlns="http://www.w3.org/2000/svg">
<path fill-rule="evenodd" clip-rule="evenodd" d="M5.46934 6.14252C5.60997 6.00207 5.80059 5.92318 5.99934 5.92318C6.19809 5.92318 6.38871 6.00207 6.52934 6.14252L11.9993 11.6125L17.4693 6.14252C17.538 6.06883 17.6208 6.00973 17.7128 5.96874C17.8048 5.92774 17.9041 5.9057 18.0048 5.90393C18.1055 5.90215 18.2055 5.92067 18.2989 5.95839C18.3923 5.99611 18.4772 6.05226 18.5484 6.12348C18.6196 6.1947 18.6757 6.27953 18.7135 6.37292C18.7512 6.46631 18.7697 6.56634 18.7679 6.66704C18.7662 6.76774 18.7441 6.86706 18.7031 6.95905C18.6621 7.05105 18.603 7.13385 18.5293 7.20252L13.0593 12.6725L18.5293 18.1425C18.603 18.2112 18.6621 18.294 18.7031 18.386C18.7441 18.478 18.7662 18.5773 18.7679 18.678C18.7697 18.7787 18.7512 18.8787 18.7135 18.9721C18.6757 19.0655 18.6196 19.1503 18.5484 19.2216C18.4772 19.2928 18.3923 19.3489 18.2989 19.3866C18.2055 19.4244 18.1055 19.4429 18.0048 19.4411C17.9041 19.4393 17.8048 19.4173 17.7128 19.3763C17.6208 19.3353 17.538 19.2762 17.4693 19.2025L11.9993 13.7325L6.52934 19.2025C6.38717 19.335 6.19912 19.4071 6.00482 19.4037C5.81052 19.4003 5.62513 19.3216 5.48772 19.1841C5.35031 19.0467 5.27159 18.8613 5.26817 18.667C5.26474 18.4727 5.33686 18.2847 5.46934 18.1425L10.9393 12.6725L5.46934 7.20252C5.32889 7.06189 5.25 6.87127 5.25 6.67252C5.25 6.47377 5.32889 6.28314 5.46934 6.14252Z" fill="#091E42" stroke="#091E42"/>
</svg>
