<svg width="5" height="15" viewBox="0 0 5 15" fill="none" xmlns="http://www.w3.org/2000/svg">
<path d="M1.58867 1.30755C1.29498 1.60123 1.12999 1.99956 1.12999 2.4149C1.12999 2.83024 1.29498 3.22856 1.58867 3.52225C1.88236 3.81594 2.28069 3.98093 2.69603 3.98093C3.11136 3.98093 3.50969 3.81594 3.80338 3.52225C4.09707 3.22856 4.26206 2.83024 4.26206 2.4149C4.26206 1.99956 4.09707 1.60123 3.80338 1.30755C3.50969 1.01386 3.11136 0.848865 2.69603 0.848865C2.28069 0.848865 1.88236 1.01386 1.58867 1.30755ZM1.58867 6.38657C1.29498 6.68026 1.12999 7.07859 1.12999 7.49393C1.12999 7.90926 1.29498 8.30759 1.58867 8.60128C1.88236 8.89497 2.28069 9.05996 2.69603 9.05996C3.11136 9.05996 3.50969 8.89497 3.80338 8.60128C4.09707 8.30759 4.26206 7.90926 4.26206 7.49393C4.26206 7.07859 4.09707 6.68026 3.80338 6.38657C3.50969 6.09288 3.11136 5.92789 2.69603 5.92789C2.28069 5.92789 1.88236 6.09288 1.58867 6.38657ZM1.58867 11.4656C1.29499 11.7593 1.12999 12.1576 1.12999 12.573C1.12999 12.9883 1.29499 13.3866 1.58867 13.6803C1.88236 13.974 2.28069 14.139 2.69603 14.139C3.11136 14.139 3.50969 13.974 3.80338 13.6803C4.09707 13.3866 4.26206 12.9883 4.26206 12.573C4.26206 12.1576 4.09707 11.7593 3.80338 11.4656C3.50969 11.1719 3.11136 11.0069 2.69603 11.0069C2.28069 11.0069 1.88236 11.1719 1.58867 11.4656Z" fill="#091E42" stroke="#091E42" stroke-width="0.592553"/>
</svg>
