<svg width="24" height="25" viewBox="0 0 24 25" fill="none" xmlns="http://www.w3.org/2000/svg">
<path d="M7.5 3.47583C7.5 2.43983 8.34 1.60083 9.375 1.60083H9.75C10.7446 1.60083 11.6984 1.99592 12.4017 2.69918C13.1049 3.40244 13.5 4.35627 13.5 5.35083V7.22583C13.5 8.26183 14.34 9.10083 15.375 9.10083H17.25C18.2446 9.10083 19.1984 9.49592 19.9017 10.1992C20.6049 10.9024 21 11.8563 21 12.8508V16.2258C21 17.2608 20.16 18.1008 19.125 18.1008H9.375C8.87772 18.1008 8.4008 17.9033 8.04917 17.5517C7.69754 17.2 7.5 16.7231 7.5 16.2258V3.47583Z" fill="#001626"/>
<path d="M15 5.35087C15.0018 4.08942 14.5475 2.86983 13.721 1.91687C15.3943 2.35683 16.9207 3.23335 18.1441 4.45676C19.3675 5.68017 20.244 7.20658 20.684 8.87987C19.731 8.05335 18.5115 7.59912 17.25 7.60087H15.375C15.2755 7.60087 15.1802 7.56136 15.1098 7.49103C15.0395 7.42071 15 7.32533 15 7.22587V5.35087ZM4.875 6.10087H6V16.2259C6 17.121 6.35558 17.9794 6.98851 18.6124C7.62145 19.2453 8.47989 19.6009 9.375 19.6009H16.5V20.7259C16.5 21.7609 15.66 22.6009 14.625 22.6009H4.875C4.37772 22.6009 3.90081 22.4033 3.54917 22.0517C3.19754 21.7001 3 21.2232 3 20.7259V7.97587C3 6.93987 3.84 6.10087 4.875 6.10087Z" fill="#001626"/>
</svg>
