<svg width="21" height="22" viewBox="0 0 21 22" fill="none" xmlns="http://www.w3.org/2000/svg">
<path d="M20.2313 1.26869C19.739 0.776502 19.0714 0.5 18.3753 0.5C17.6791 0.5 17.0115 0.776502 16.5193 1.26869L15.3623 2.42569L19.0743 6.13769L20.2313 4.98069C20.7234 4.48842 20.9999 3.82081 20.9999 3.12469C20.9999 2.42857 20.7234 1.76096 20.2313 1.26869ZM18.0133 7.19869L14.3013 3.48669L2.15125 15.6367C1.53411 16.2535 1.08043 17.0145 0.831255 17.8507L0.0312546 20.5357C-0.00736926 20.6653 -0.0102499 20.8029 0.0229175 20.9339C0.0560849 21.065 0.124067 21.1847 0.21967 21.2803C0.315273 21.3759 0.434942 21.4439 0.566014 21.477C0.697085 21.5102 0.834686 21.5073 0.964255 21.4687L3.64925 20.6687C4.48548 20.4195 5.24642 19.9658 5.86325 19.3487L18.0133 7.19869Z" fill="#091E42"/>
</svg>
