<svg width="24" height="23" viewBox="0 0 24 23" fill="none" xmlns="http://www.w3.org/2000/svg">
<path d="M12 8.70409C13.0608 8.70409 14.0782 9.08676 14.8284 9.7679C15.5785 10.449 16 11.3729 16 12.3362C16 13.2995 15.5785 14.2233 14.8284 14.9044C14.0782 15.5856 13.0608 15.9682 12 15.9682C10.9391 15.9682 9.92168 15.5856 9.17154 14.9044C8.42139 14.2233 7.99996 13.2995 7.99996 12.3362C7.99996 11.3729 8.42139 10.449 9.17154 9.7679C9.92168 9.08676 10.9391 8.70409 12 8.70409ZM12 5.52148C16.613 5.52148 20.596 8.38174 21.701 12.3897C21.7494 12.5649 21.7191 12.7504 21.6169 12.9054C21.5147 13.0603 21.3489 13.1721 21.156 13.216C20.963 13.26 20.7587 13.2325 20.5881 13.1397C20.4174 13.0469 20.2944 12.8964 20.246 12.7212C19.7837 11.053 18.7212 9.5727 17.2269 8.51526C15.7327 7.45782 13.8924 6.88377 11.9979 6.88418C10.1035 6.8846 8.26341 7.45947 6.76974 8.51757C5.27607 9.57567 4.21432 11.0564 3.75296 12.7248C3.70115 12.8964 3.57748 13.0427 3.40838 13.1325C3.23929 13.2223 3.0382 13.2485 2.84812 13.2055C2.65804 13.1624 2.49406 13.0535 2.39125 12.9021C2.28844 12.7507 2.25495 12.5687 2.29796 12.3952C2.84024 10.4316 4.08942 8.68871 5.84717 7.44337C7.60492 6.19804 9.77047 5.52161 12 5.52148Z" fill="#091E42"/>
</svg>
