<svg width="14" height="14" viewBox="0 0 14 14" fill="none" xmlns="http://www.w3.org/2000/svg">
<path fill-rule="evenodd" clip-rule="evenodd" d="M7.10645 0.5C3.51645 0.5 0.606445 3.41 0.606445 7C0.606445 10.59 3.51645 13.5 7.10645 13.5C10.6964 13.5 13.6064 10.59 13.6064 7C13.6064 3.41 10.6964 0.5 7.10645 0.5ZM5.95978 5.14667C5.914 5.09754 5.8588 5.05814 5.79747 5.03081C5.73614 5.00348 5.66993 4.98879 5.60279 4.98761C5.53566 4.98642 5.46897 4.99877 5.40671 5.02392C5.34445 5.04907 5.2879 5.0865 5.24042 5.13398C5.19294 5.18145 5.15551 5.23801 5.13036 5.30027C5.10522 5.36253 5.09287 5.42921 5.09405 5.49635C5.09524 5.56348 5.10993 5.62969 5.13726 5.69103C5.16459 5.75236 5.20399 5.80756 5.25311 5.85333L6.39978 7L5.25311 8.14667C5.20399 8.19244 5.16459 8.24764 5.13726 8.30897C5.10993 8.37031 5.09524 8.43652 5.09405 8.50365C5.09287 8.57079 5.10522 8.63747 5.13036 8.69973C5.15551 8.76199 5.19294 8.81855 5.24042 8.86603C5.2879 8.9135 5.34445 8.95093 5.40671 8.97608C5.46897 9.00123 5.53566 9.01358 5.60279 9.01239C5.66993 9.01121 5.73614 8.99652 5.79747 8.96919C5.8588 8.94186 5.914 8.90246 5.95978 8.85333L7.10645 7.70667L8.25311 8.85333C8.29889 8.90246 8.35409 8.94186 8.41542 8.96919C8.47675 8.99652 8.54296 9.01121 8.6101 9.01239C8.67723 9.01358 8.74392 9.00123 8.80618 8.97608C8.86844 8.95093 8.92499 8.9135 8.97247 8.86603C9.01995 8.81855 9.05738 8.76199 9.08253 8.69973C9.10767 8.63747 9.12002 8.57079 9.11884 8.50365C9.11766 8.43652 9.10296 8.37031 9.07563 8.30897C9.0483 8.24764 9.0089 8.19244 8.95978 8.14667L7.81311 7L8.95978 5.85333C9.0089 5.80756 9.0483 5.75236 9.07563 5.69103C9.10296 5.62969 9.11766 5.56348 9.11884 5.49635C9.12002 5.42921 9.10767 5.36253 9.08253 5.30027C9.05738 5.23801 9.01995 5.18145 8.97247 5.13398C8.92499 5.0865 8.86844 5.04907 8.80618 5.02392C8.74392 4.99877 8.67723 4.98642 8.6101 4.98761C8.54296 4.98879 8.47675 5.00348 8.41542 5.03081C8.35409 5.05814 8.29889 5.09754 8.25311 5.14667L7.10645 6.29333L5.95978 5.14667Z" fill="#9A1D1D"/>
</svg>
