<svg width="13" height="14" viewBox="0 0 13 14" fill="none" xmlns="http://www.w3.org/2000/svg">
<path fill-rule="evenodd" clip-rule="evenodd" d="M6.5 0.10083C2.91 0.10083 0 3.01083 0 6.60083C0 10.1908 2.91 13.1008 6.5 13.1008C10.09 13.1008 13 10.1908 13 6.60083C13 3.01083 10.09 0.10083 6.5 0.10083ZM5.35333 4.7475C5.30756 4.69837 5.25236 4.65897 5.19103 4.63164C5.12969 4.60431 5.06348 4.58962 4.99635 4.58844C4.92921 4.58725 4.86253 4.5996 4.80027 4.62475C4.73801 4.6499 4.68145 4.68733 4.63398 4.73481C4.5865 4.78228 4.54907 4.83884 4.52392 4.9011C4.49877 4.96336 4.48642 5.03004 4.48761 5.09718C4.48879 5.16431 4.50348 5.23052 4.53081 5.29186C4.55814 5.35319 4.59754 5.40839 4.64667 5.45416L5.79333 6.60083L4.64667 7.7475C4.59754 7.79327 4.55814 7.84847 4.53081 7.9098C4.50348 7.97114 4.48879 8.03735 4.48761 8.10448C4.48642 8.17162 4.49877 8.2383 4.52392 8.30056C4.54907 8.36282 4.5865 8.41938 4.63398 8.46686C4.68145 8.51433 4.73801 8.55176 4.80027 8.57691C4.86253 8.60206 4.92921 8.61441 4.99635 8.61322C5.06348 8.61204 5.12969 8.59735 5.19103 8.57002C5.25236 8.54269 5.30756 8.50329 5.35333 8.45416L6.5 7.3075L7.64667 8.45416C7.69244 8.50329 7.74764 8.54269 7.80897 8.57002C7.87031 8.59735 7.93652 8.61204 8.00365 8.61322C8.07079 8.61441 8.13747 8.60206 8.19973 8.57691C8.26199 8.55176 8.31855 8.51433 8.36603 8.46686C8.4135 8.41938 8.45093 8.36282 8.47608 8.30056C8.50123 8.2383 8.51358 8.17162 8.51239 8.10448C8.51121 8.03735 8.49652 7.97114 8.46919 7.9098C8.44186 7.84847 8.40246 7.79327 8.35333 7.7475L7.20667 6.60083L8.35333 5.45416C8.40246 5.40839 8.44186 5.35319 8.46919 5.29186C8.49652 5.23052 8.51121 5.16431 8.51239 5.09718C8.51358 5.03004 8.50123 4.96336 8.47608 4.9011C8.45093 4.83884 8.4135 4.78228 8.36603 4.73481C8.31855 4.68733 8.26199 4.6499 8.19973 4.62475C8.13747 4.5996 8.07079 4.58725 8.00365 4.58844C7.93652 4.58962 7.87031 4.60431 7.80897 4.63164C7.74764 4.65897 7.69244 4.69837 7.64667 4.7475L6.5 5.89416L5.35333 4.7475Z" fill="#FEAAAA"/>
</svg>
