<svg width="24" height="21" viewBox="0 0 24 21" fill="none" xmlns="http://www.w3.org/2000/svg">
<g clip-path="url(#clip0_820_15426)">
<path d="M13.5762 10.4833L15.9159 13.1578L19.0623 15.1682L19.6096 10.5002L19.0623 5.9375L15.8556 7.70366L13.5762 10.4833Z" fill="#00832D"/>
<path d="M0 14.7337V18.7115C0 19.6198 0.73725 20.3572 1.64569 20.3572H5.6235L6.44719 17.3517L5.6235 14.7337L2.89444 13.91L9.375e-05 14.7337H0Z" fill="#0066DA"/>
<path d="M5.6235 0.609375L0 6.23287L2.89462 7.05459L5.6235 6.23287L6.43219 3.65053L5.6235 0.609375Z" fill="#E94235"/>
<path d="M0 14.7355H5.62341V6.23279H0V14.7355Z" fill="#2684FC"/>
<path d="M22.6549 2.99047L19.0625 5.9376V15.1682L22.6697 18.1268C23.2097 18.5498 23.9997 18.1643 23.9997 17.4778V3.62628C23.9997 2.93225 23.1909 2.54863 22.6548 2.99056" fill="#00AC47"/>
<path d="M13.5766 10.4833V14.7337H5.62305V20.3572H17.4172C18.3256 20.3572 19.0628 19.6198 19.0628 18.7115V15.1682L13.5766 10.4833Z" fill="#00AC47"/>
<path d="M17.4172 0.609375H5.62305V6.23287H13.5766V10.4833L19.0629 5.93738V2.25516C19.0629 1.34672 18.3256 0.609469 17.4172 0.609469" fill="#FFBA00"/>
</g>
<defs>
<clipPath id="clip0_820_15426">
<rect width="24" height="19.7812" fill="white" transform="translate(0 0.609375)"/>
</clipPath>
</defs>
</svg>
