<svg width="24" height="25" viewBox="0 0 24 25" fill="none" xmlns="http://www.w3.org/2000/svg">
<path d="M12.0002 12.4182V21.4182M12.0002 12.4182L9.50021 14.4182M12.0002 12.4182L14.5002 14.4182M5.03421 9.53516C4.08842 9.77315 3.26208 10.3483 2.71046 11.1526C2.15883 11.9569 1.91989 12.9349 2.03851 13.9029C2.15714 14.871 2.62517 15.7624 3.35467 16.4097C4.08417 17.057 5.02494 17.4156 6.00021 17.4182H7.00021" stroke="#091E42" stroke-width="2" stroke-linecap="round" stroke-linejoin="round"/>
<path d="M15.8306 7.55569C15.4889 6.20226 14.6452 5.02943 13.4708 4.27494C12.2963 3.52046 10.8789 3.24078 9.5059 3.49259C8.13289 3.7444 6.90699 4.50887 6.07671 5.63103C5.24643 6.75318 4.87391 8.14905 5.03465 9.53569C5.03465 9.53569 5.18765 10.4177 5.50065 10.9177" stroke="#091E42" stroke-width="2" stroke-linecap="round" stroke-linejoin="round"/>
<path d="M17 17.418C17.706 17.4175 18.404 17.2675 19.0479 16.9778C19.6917 16.6882 20.267 16.2654 20.7357 15.7374C21.2045 15.2094 21.5561 14.5882 21.7674 13.9145C21.9787 13.2408 22.045 12.53 21.9618 11.8289C21.8786 11.1278 21.6479 10.4522 21.2848 9.84671C20.9217 9.24118 20.4345 8.71942 19.8552 8.31575C19.276 7.91209 18.6178 7.63569 17.924 7.50473C17.2302 7.37377 16.5166 7.39124 15.83 7.55597L14.5 7.91797" stroke="#091E42" stroke-width="2" stroke-linecap="round" stroke-linejoin="round"/>
</svg>
