<svg width="24" height="25" viewBox="0 0 24 25" fill="none" xmlns="http://www.w3.org/2000/svg">
<path fill-rule="evenodd" clip-rule="evenodd" d="M12.1345 0.742367C5.68796 0.742367 0.462524 5.9678 0.462524 12.4143C0.462524 18.8608 5.68796 24.0862 12.1345 24.0862C18.581 24.0862 23.8064 18.8608 23.8064 12.4143C23.8064 5.9678 18.581 0.742367 12.1345 0.742367ZM17.2581 13.0488C17.4263 12.8804 17.5207 12.6522 17.5207 12.4143C17.5207 12.1764 17.4263 11.9482 17.2581 11.7798L13.6668 8.18846C13.5846 8.10025 13.4855 8.0295 13.3753 7.98043C13.2652 7.93135 13.1463 7.90497 13.0257 7.90284C12.9052 7.90071 12.7854 7.92289 12.6736 7.96805C12.5618 8.0132 12.4603 8.08041 12.375 8.16567C12.2898 8.25093 12.2226 8.35249 12.1774 8.46428C12.1323 8.57608 12.1101 8.69583 12.1122 8.81638C12.1143 8.93693 12.1407 9.05582 12.1898 9.16596C12.2389 9.27609 12.3096 9.37521 12.3978 9.45741L14.4569 11.5165H7.64525C7.40713 11.5165 7.17876 11.6111 7.01038 11.7794C6.84201 11.9478 6.74741 12.1762 6.74741 12.4143C6.74741 12.6524 6.84201 12.8808 7.01038 13.0492C7.17876 13.2175 7.40713 13.3121 7.64525 13.3121H14.4569L12.3978 15.3712C12.3096 15.4534 12.2389 15.5525 12.1898 15.6626C12.1407 15.7728 12.1143 15.8917 12.1122 16.0122C12.1101 16.1328 12.1323 16.2525 12.1774 16.3643C12.2226 16.4761 12.2898 16.5777 12.375 16.6629C12.4603 16.7482 12.5618 16.8154 12.6736 16.8606C12.7854 16.9057 12.9052 16.9279 13.0257 16.9258C13.1463 16.9236 13.2652 16.8972 13.3753 16.8482C13.4855 16.7991 13.5846 16.7284 13.6668 16.6401L17.2581 13.0488Z" fill="#091E42"/>
</svg>
