<svg width="24" height="25" viewBox="0 0 24 25" fill="none" xmlns="http://www.w3.org/2000/svg">
<path fill-rule="evenodd" clip-rule="evenodd" d="M11.8555 0.742362C5.40903 0.742362 0.183594 5.9678 0.183594 12.4143C0.183594 18.8608 5.40903 24.0862 11.8555 24.0862C18.302 24.0862 23.5275 18.8608 23.5275 12.4143C23.5275 5.9678 18.302 0.742362 11.8555 0.742362ZM6.73185 11.7798C6.56371 11.9482 6.46927 12.1764 6.46927 12.4143C6.46927 12.6522 6.56371 12.8804 6.73185 13.0488L10.3232 16.6401C10.4054 16.7283 10.5045 16.7991 10.6147 16.8482C10.7248 16.8972 10.8437 16.9236 10.9642 16.9258C11.0848 16.9279 11.2045 16.9057 11.3163 16.8606C11.4281 16.8154 11.5297 16.7482 11.615 16.6629C11.7002 16.5777 11.7674 16.4761 11.8126 16.3643C11.8577 16.2525 11.8799 16.1328 11.8778 16.0122C11.8757 15.8917 11.8493 15.7728 11.8002 15.6626C11.7511 15.5525 11.6804 15.4534 11.5922 15.3712L9.53311 13.3121H16.3447C16.5829 13.3121 16.8112 13.2175 16.9796 13.0492C17.148 12.8808 17.2426 12.6524 17.2426 12.4143C17.2426 12.1762 17.148 11.9478 16.9796 11.7794C16.8112 11.611 16.5829 11.5165 16.3447 11.5165H9.53311L11.5922 9.45741C11.7508 9.28721 11.8371 9.06209 11.833 8.82949C11.8289 8.59689 11.7347 8.37496 11.5702 8.21046C11.4057 8.04596 11.1837 7.95173 10.9511 7.94763C10.7185 7.94352 10.4934 8.02986 10.3232 8.18846L6.73185 11.7798Z" fill="#091E42"/>
</svg>
