<svg width="24" height="24" viewBox="0 0 24 24" fill="none" xmlns="http://www.w3.org/2000/svg">
<path fill-rule="evenodd" clip-rule="evenodd" d="M17.871 2.05607C17.4844 2.19321 17.2049 2.47607 17.0733 2.86344C17.0308 2.98873 17.0098 3.18483 17.0098 3.45649V3.86237L16.2172 3.87563L15.4247 3.88889L15.178 4.02255C14.9041 4.171 14.7861 4.29281 14.6299 4.58881L14.5245 4.78858L14.5138 8.08418L14.5032 11.3798H13.8661H13.229L13.1786 11.2403C13.1124 11.0575 12.9232 10.8452 12.7474 10.7566C12.67 10.7176 12.4703 10.6538 12.3037 10.6149C12.0655 10.5593 11.9957 10.5269 11.9768 10.4633C11.9636 10.4187 11.9091 10.2832 11.8557 10.1621L11.7587 9.9418L11.9469 9.61806C12.1103 9.33689 12.1371 9.26011 12.1498 9.03464C12.171 8.65982 12.0853 8.50589 11.5778 8.00661C11.0887 7.52543 10.9591 7.45592 10.5874 7.47575C10.3639 7.48764 10.2868 7.51416 10.0125 7.67345L9.69577 7.85741L9.38611 7.73572L9.0764 7.61403L9.00681 7.31615C8.89581 6.84108 8.75863 6.6358 8.43836 6.46528C8.31973 6.40215 8.20967 6.39237 7.61644 6.39237C6.9892 6.39237 6.91832 6.39949 6.77495 6.47678C6.46767 6.64252 6.33616 6.84437 6.22485 7.32101C6.16928 7.55915 6.13687 7.62889 6.07319 7.64775C6.02861 7.66097 5.89456 7.71472 5.77526 7.76721L5.55832 7.86266L5.22963 7.67654C4.95644 7.52187 4.85984 7.4878 4.65785 7.47493C4.27522 7.4506 4.1674 7.50685 3.67452 7.98822C3.14188 8.5084 3.06133 8.64996 3.0827 9.02834C3.09589 9.2612 3.12117 9.33458 3.28599 9.61806L3.47421 9.9418L3.37115 10.1816C3.31444 10.3135 3.25401 10.4478 3.23679 10.4801C3.21961 10.5124 3.06622 10.5757 2.89597 10.6209C2.52826 10.7184 2.38775 10.7869 2.24908 10.9362C2.01796 11.185 2 11.2621 2 12.0056C2 12.5985 2.00978 12.7085 2.07295 12.8271C2.24407 13.1481 2.44869 13.2842 2.92916 13.3964C3.1674 13.452 3.23722 13.4844 3.25609 13.548C3.26932 13.5926 3.3238 13.7281 3.37714 13.8492L3.47421 14.0695L3.28599 14.3932C3.12231 14.6748 3.09597 14.7506 3.08399 14.9749C3.06415 15.3464 3.1337 15.4759 3.61515 15.9648C4.11386 16.4711 4.26904 16.5576 4.64141 16.5366C4.86235 16.5241 4.94564 16.4956 5.22861 16.3353L5.55832 16.1486L5.79483 16.2501C5.92489 16.3059 6.05773 16.3656 6.09002 16.3828C6.12231 16.4 6.18571 16.5533 6.23088 16.7234C6.32849 17.091 6.39703 17.2314 6.54642 17.37C6.79538 17.601 6.87252 17.6189 7.61644 17.6189C8.20967 17.6189 8.31973 17.6091 8.43836 17.546C8.75863 17.3755 8.89581 17.1702 9.00681 16.6951L9.0764 16.3973L9.38611 16.2756L9.69577 16.1539L10.009 16.3358C10.3645 16.5422 10.6192 16.5882 10.9341 16.5028C11.0917 16.46 11.1901 16.3818 11.5926 15.9796C11.9951 15.5773 12.0733 15.4789 12.1161 15.3215C12.2021 15.0046 12.1558 14.7525 11.9448 14.3897L11.7587 14.0695L11.8557 13.8492C11.9091 13.7281 11.9636 13.5926 11.9768 13.548C11.9957 13.4844 12.0655 13.452 12.3037 13.3964C12.4703 13.3575 12.67 13.2937 12.7474 13.2547C12.9232 13.166 13.1124 12.9538 13.1786 12.771L13.229 12.6315H13.8659H14.5027L14.5136 15.9271L14.5245 19.2227L14.6299 19.4225C14.7861 19.7185 14.9041 19.8403 15.178 19.9887L15.4247 20.1224L16.2133 20.1356L17.0019 20.1488L17.0175 20.6245C17.0308 21.0286 17.0475 21.1298 17.1282 21.2959C17.2487 21.5441 17.4831 21.779 17.7339 21.9031L17.9296 22H19.5147H21.0998L21.2955 21.9031C21.545 21.7797 21.7795 21.5453 21.9031 21.2959L22 21.1003V19.5161V17.9318L21.9031 17.7363C21.7795 17.4869 21.545 17.2525 21.2955 17.129L21.0998 17.0322H19.5147H17.9296L17.7339 17.129C17.4831 17.2531 17.2487 17.4881 17.1282 17.7363C17.0474 17.9026 17.0308 18.0035 17.0175 18.411L17.0017 18.8902H16.3795H15.7573V15.7609V12.6315H16.3795H17.0017L17.0175 13.1107C17.0308 13.5183 17.0474 13.6191 17.1282 13.7855C17.2487 14.0336 17.4831 14.2686 17.7339 14.3927L17.9296 14.4896H19.5147H21.0998L21.2955 14.3927C21.545 14.2692 21.7795 14.0348 21.9031 13.7855L22 13.5899V12.0056V10.4214L21.9031 10.2258C21.7795 9.97645 21.545 9.74206 21.2955 9.61857L21.0998 9.52172H19.5147H17.9296L17.7339 9.61857C17.4831 9.74269 17.2487 9.97767 17.1282 10.2258C17.0474 10.3922 17.0308 10.493 17.0175 10.9006L17.0017 11.3798H16.3795H15.7573V8.25042V5.12107H16.3795H17.0017L17.0175 5.60025C17.0308 6.00781 17.0474 6.10866 17.1282 6.27502C17.2487 6.52318 17.4831 6.75815 17.7339 6.88227L17.9296 6.97912H19.5147H21.0998L21.2955 6.88227C21.545 6.75878 21.7795 6.52439 21.9031 6.27502L22 6.07944V4.4952V2.91097L21.9031 2.71539C21.7795 2.46602 21.545 2.23163 21.2955 2.10814L21.0998 2.01128L19.5734 2.00248C18.2604 1.99493 18.0224 2.0024 17.871 2.05607ZM8.29683 9.93702C8.94755 10.1549 9.46321 10.6732 9.69327 11.3407C9.76063 11.536 9.78125 11.6855 9.78235 11.9861C9.7847 12.6315 9.60239 13.0721 9.14294 13.5313C8.84317 13.8309 8.58951 13.9846 8.18904 14.1092C7.88982 14.2024 7.27033 14.1914 6.97065 14.0876C6.27937 13.8481 5.77346 13.3473 5.53922 12.6706C5.46971 12.4698 5.45119 12.33 5.45119 12.0056C5.45119 11.6812 5.46971 11.5415 5.53922 11.3407C5.80481 10.5734 6.46751 9.99241 7.23217 9.85644C7.52247 9.80485 8.01272 9.84193 8.29683 9.93702ZM7.40117 11.1016C6.9665 11.2142 6.70188 11.5563 6.70188 12.0056C6.70188 12.5458 7.07522 12.919 7.61644 12.9198C7.97503 12.9203 8.23859 12.7663 8.42599 12.4468C8.51331 12.2978 8.5326 12.2179 8.53186 12.008C8.53061 11.6347 8.35914 11.3453 8.04286 11.1827C7.87726 11.0975 7.56771 11.0584 7.40117 11.1016Z" fill="#003E9C"/>
</svg>
