<svg width="24" height="24" viewBox="0 0 24 24" fill="none" xmlns="http://www.w3.org/2000/svg">
<path d="M12.0219 13.9999C11.3527 15.0445 10.998 16.2594 10.9999 17.4999C10.9999 19.1439 11.6099 20.6449 12.6169 21.7899C11.8149 21.9309 10.9419 21.9999 9.99991 21.9999C7.10991 21.9999 4.87191 21.3439 3.30891 19.9999C2.89955 19.6479 2.57103 19.2116 2.3458 18.721C2.12058 18.2303 2.00395 17.6968 2.00391 17.1569V16.2499C2.00391 15.6532 2.24096 15.0809 2.66292 14.6589C3.08487 14.237 3.65717 13.9999 4.25391 13.9999H12.0219ZM9.99991 2.00391C11.326 2.00391 12.5978 2.53069 13.5354 3.46837C14.4731 4.40605 14.9999 5.67782 14.9999 7.00391C14.9999 8.32999 14.4731 9.60176 13.5354 10.5394C12.5978 11.4771 11.326 12.0039 9.99991 12.0039C8.67382 12.0039 7.40205 11.4771 6.46437 10.5394C5.52669 9.60176 4.99991 8.32999 4.99991 7.00391C4.99991 5.67782 5.52669 4.40605 6.46437 3.46837C7.40205 2.53069 8.67382 2.00391 9.99991 2.00391Z" fill="#091E42"/>
<path fill-rule="evenodd" clip-rule="evenodd" d="M17.5 23C20.5376 23 23 20.5376 23 17.5C23 14.4624 20.5376 12 17.5 12C14.4624 12 12 14.4624 12 17.5C12 20.5376 14.4624 23 17.5 23ZM14 17.5C13.7239 17.5 13.5 17.7239 13.5 18C13.5 18.2761 13.7239 18.5 14 18.5H21C21.2761 18.5 21.5 18.2761 21.5 18C21.5 17.7239 21.2761 17.5 21 17.5H14Z" fill="#091E42"/>
</svg>
