<svg width="24" height="24" viewBox="0 0 24 24" fill="none" xmlns="http://www.w3.org/2000/svg">
<path d="M9.75 2H13.748C13.938 2.00006 14.1209 2.07224 14.2598 2.20197C14.3986 2.3317 14.4831 2.5093 14.496 2.69888C14.509 2.88846 14.4495 3.07589 14.3296 3.2233C14.2097 3.37071 14.0382 3.4671 13.85 3.493L13.748 3.5H12.5V20.5H13.746C13.9272 20.5 14.1023 20.5656 14.2389 20.6848C14.3755 20.8039 14.4644 20.9684 14.489 21.148L14.496 21.25C14.496 21.4312 14.4304 21.6063 14.3112 21.7429C14.1921 21.8795 14.0276 21.9684 13.848 21.993L13.746 22H9.75C9.55998 21.9999 9.37706 21.9278 9.23821 21.798C9.09936 21.6683 9.01493 21.4907 9.00197 21.3011C8.98902 21.1115 9.04851 20.9241 9.16843 20.7767C9.28835 20.6293 9.45975 20.5329 9.648 20.507L9.75 20.5H10.999V3.5H9.75C9.56876 3.49999 9.39366 3.43436 9.25707 3.31523C9.12048 3.19611 9.03165 3.03155 9.007 2.852L9 2.75C9.00001 2.56876 9.06564 2.39366 9.18477 2.25707C9.30389 2.12048 9.46845 2.03165 9.648 2.007L9.75 2ZM18.246 4.997C19.1077 4.99779 19.9339 5.34046 20.5432 5.94978C21.1525 6.5591 21.4952 7.38529 21.496 8.247L21.5 15.751C21.5006 16.5811 21.1834 17.3799 20.6137 17.9835C20.0439 18.5871 19.2647 18.9497 18.436 18.997L18.25 19.002H13.505V4.996H18.245L18.246 4.997ZM9.997 4.997L9.992 19H5.25C4.38822 19 3.56172 18.6577 2.95226 18.0485C2.34279 17.4392 2.00027 16.6128 2 15.751V8.247C2 7.38505 2.34241 6.5584 2.9519 5.9489C3.5614 5.33941 4.38805 4.997 5.25 4.997H9.997Z" fill="#091E42"/>
</svg>
