<svg width="25" height="24" viewBox="0 0 25 24" fill="none" xmlns="http://www.w3.org/2000/svg">
<path d="M3.9577 2.47082C3.81553 2.33834 3.62748 2.26622 3.43318 2.26965C3.23888 2.27308 3.05349 2.35179 2.91608 2.4892C2.77867 2.62661 2.69996 2.812 2.69653 3.0063C2.6931 3.2006 2.76522 3.38865 2.8977 3.53082L20.8977 21.5308C20.9664 21.6045 21.0492 21.6636 21.1412 21.7046C21.2332 21.7456 21.3325 21.7676 21.4332 21.7694C21.5339 21.7712 21.6339 21.7527 21.7273 21.7149C21.8207 21.6772 21.9055 21.6211 21.9767 21.5499C22.048 21.4786 22.1041 21.3938 22.1418 21.3004C22.1795 21.207 22.1981 21.107 22.1963 21.0063C22.1945 20.9056 22.1725 20.8063 22.1315 20.7143C22.0905 20.6223 22.0314 20.5395 21.9577 20.4708L3.9577 2.47082ZM23.1037 12.5538C22.5647 14.1713 21.665 15.6451 20.4727 16.8638L17.3737 13.7648C17.708 12.8287 17.7698 11.817 17.5517 10.8472C17.3337 9.87742 16.8448 8.98947 16.1419 8.28661C15.4391 7.58375 14.5511 7.09486 13.5813 6.8768C12.6115 6.65875 11.5998 6.72048 10.6637 7.05482L8.1867 4.57782C9.53373 4.02978 10.9745 3.7489 12.4287 3.75082C17.3987 3.75082 21.6137 6.97382 23.1037 11.4408C23.2237 11.8028 23.2237 12.1928 23.1037 12.5538Z" fill="#091E42"/>
<path d="M16.1778 12.0008C16.1778 12.1808 16.1648 12.3578 16.1408 12.5308L11.8968 8.28779C12.4287 8.21169 12.9709 8.25082 13.4864 8.40253C14.0019 8.55424 14.4788 8.81498 14.8848 9.16708C15.2908 9.51919 15.6163 9.95444 15.8394 10.4433C16.0625 10.9323 16.1779 11.4634 16.1778 12.0008ZM12.9578 15.7138L8.71475 11.4698C8.63235 12.0462 8.68528 12.6338 8.86937 13.1862C9.05346 13.7386 9.36365 14.2405 9.77535 14.6522C10.1871 15.0639 10.689 15.3741 11.2413 15.5582C11.7937 15.7423 12.3814 15.7952 12.9578 15.7128V15.7138Z" fill="#091E42"/>
<path d="M7.17774 12.0007C7.17774 11.3817 7.28474 10.7877 7.48174 10.2367L4.38174 7.13672C3.18984 8.35556 2.29053 9.82934 1.75174 11.4467C1.63174 11.8087 1.63174 12.1987 1.75174 12.5607C3.24074 17.0277 7.45574 20.2507 12.4267 20.2507C13.9267 20.2507 15.3597 19.9567 16.6687 19.4237L14.1917 16.9467C13.3994 17.2294 12.5507 17.3175 11.7172 17.2036C10.8837 17.0898 10.0897 16.7773 9.40222 16.2925C8.71471 15.8077 8.15377 15.1647 7.76664 14.4179C7.37952 13.671 7.17755 12.842 7.17774 12.0007Z" fill="#091E42"/>
</svg>
