<svg width="25" height="24" viewBox="0 0 25 24" fill="none" xmlns="http://www.w3.org/2000/svg">
<path d="M12.7339 15C13.5295 15 14.2926 14.6839 14.8552 14.1213C15.4178 13.5587 15.7339 12.7956 15.7339 12C15.7339 11.2044 15.4178 10.4413 14.8552 9.87868C14.2926 9.31607 13.5295 9 12.7339 9C11.9382 9 11.1752 9.31607 10.6126 9.87868C10.05 10.4413 9.73389 11.2044 9.73389 12C9.73389 12.7956 10.05 13.5587 10.6126 14.1213C11.1752 14.6839 11.9382 15 12.7339 15Z" fill="#091E42"/>
<path fill-rule="evenodd" clip-rule="evenodd" d="M2.05684 11.447C3.54484 6.976 7.76184 3.75 12.7348 3.75C17.7048 3.75 21.9198 6.973 23.4098 11.44C23.5298 11.802 23.5298 12.192 23.4098 12.553C21.9228 17.024 17.7048 20.25 12.7328 20.25C7.76284 20.25 3.54684 17.027 2.05784 12.56C1.93759 12.1987 1.93759 11.8083 2.05784 11.447H2.05684ZM17.9838 12C17.9838 13.3924 17.4307 14.7277 16.4462 15.7123C15.4616 16.6969 14.1262 17.25 12.7338 17.25C11.3415 17.25 10.0061 16.6969 9.02153 15.7123C8.03696 14.7277 7.48384 13.3924 7.48384 12C7.48384 10.6076 8.03696 9.27225 9.02153 8.28769C10.0061 7.30312 11.3415 6.75 12.7338 6.75C14.1262 6.75 15.4616 7.30312 16.4462 8.28769C17.4307 9.27225 17.9838 10.6076 17.9838 12Z" fill="#091E42"/>
</svg>
