<svg width="24" height="25" viewBox="0 0 24 25" fill="none" xmlns="http://www.w3.org/2000/svg">
<path d="M12 15.5C12.7956 15.5 13.5587 15.1839 14.1213 14.6213C14.6839 14.0587 15 13.2956 15 12.5C15 11.7044 14.6839 10.9413 14.1213 10.3787C13.5587 9.81607 12.7956 9.5 12 9.5C11.2044 9.5 10.4413 9.81607 9.87868 10.3787C9.31607 10.9413 9 11.7044 9 12.5C9 13.2956 9.31607 14.0587 9.87868 14.6213C10.4413 15.1839 11.2044 15.5 12 15.5Z" fill="#091E42"/>
<path fill-rule="evenodd" clip-rule="evenodd" d="M1.32356 11.947C2.81156 7.476 7.02856 4.25 12.0016 4.25C16.9716 4.25 21.1866 7.473 22.6766 11.94C22.7966 12.302 22.7966 12.692 22.6766 13.053C21.1896 17.524 16.9716 20.75 11.9996 20.75C7.02956 20.75 2.81356 17.527 1.32456 13.06C1.20431 12.6987 1.20431 12.3083 1.32456 11.947H1.32356ZM17.2506 12.5C17.2506 13.8924 16.6974 15.2277 15.7129 16.2123C14.7283 17.1969 13.393 17.75 12.0006 17.75C10.6082 17.75 9.27282 17.1969 8.28825 16.2123C7.30369 15.2277 6.75056 13.8924 6.75056 12.5C6.75056 11.1076 7.30369 9.77226 8.28825 8.78769C9.27282 7.80312 10.6082 7.25 12.0006 7.25C13.393 7.25 14.7283 7.80312 15.7129 8.78769C16.6974 9.77226 17.2506 11.1076 17.2506 12.5Z" fill="#091E42"/>
</svg>
