<svg width="25" height="23" viewBox="0 0 25 23" fill="none" xmlns="http://www.w3.org/2000/svg">
<g clip-path="url(#clip0_820_15430)">
<path d="M16.9625 8.66895H23.1617C23.7474 8.66895 24.2222 9.14379 24.2222 9.72944V15.3761C24.2222 17.5286 22.4772 19.2737 20.3247 19.2737H20.3062C18.1537 19.2739 16.4085 17.5293 16.4082 15.3767V9.22329C16.4082 9.1505 16.4225 9.07841 16.4504 9.01116C16.4782 8.9439 16.519 8.88279 16.5705 8.83131C16.622 8.77984 16.6831 8.739 16.7503 8.71114C16.8176 8.68328 16.8897 8.66895 16.9625 8.66895Z" fill="#5059C9"/>
<path d="M21.1523 7.55273C22.5394 7.55273 23.6639 6.42822 23.6639 5.04108C23.6639 3.65393 22.5394 2.52942 21.1523 2.52942C19.7651 2.52942 18.6406 3.65393 18.6406 5.04108C18.6406 6.42822 19.7651 7.55273 21.1523 7.55273Z" fill="#5059C9"/>
<path d="M13.3389 7.55275C15.3425 7.55275 16.9668 5.92847 16.9668 3.92481C16.9668 1.92116 15.3425 0.296875 13.3389 0.296875C11.3352 0.296875 9.71094 1.92116 9.71094 3.92481C9.71094 5.92847 11.3352 7.55275 13.3389 7.55275Z" fill="#7B83EB"/>
<path d="M18.1757 8.66895H7.9428C7.36408 8.68329 6.9063 9.16357 6.91971 9.74229V16.1826C6.83889 19.6555 9.58642 22.5375 13.0592 22.6225C16.532 22.5375 19.2795 19.6555 19.1988 16.1826V9.74229C19.2122 9.16357 18.7544 8.68329 18.1757 8.66895Z" fill="#7B83EB"/>
<path opacity="0.1" d="M13.618 8.66895V17.6941C13.6167 17.8965 13.5555 18.094 13.4423 18.2618C13.3291 18.4297 13.1689 18.5603 12.9817 18.6374C12.8598 18.6889 12.7289 18.7155 12.5966 18.7155H7.41137C7.3388 18.5313 7.27187 18.347 7.21599 18.1574C7.02062 17.5169 6.92095 16.8511 6.92021 16.1815V9.7406C6.9068 9.16282 7.36383 8.68329 7.94162 8.66904H13.6179L13.618 8.66895Z" fill="black"/>
<path opacity="0.2" d="M13.0596 8.66895V18.2523C13.0596 18.3845 13.0331 18.5155 12.9815 18.6374C12.9045 18.8246 12.7738 18.9848 12.606 19.098C12.4382 19.2112 12.2406 19.2723 12.0382 19.2737H7.67368C7.5788 19.0894 7.48946 18.9052 7.41137 18.7155C7.33634 18.5331 7.27113 18.3468 7.21599 18.1574C7.02062 17.5169 6.92095 16.8511 6.92021 16.1815V9.7406C6.9068 9.16282 7.36383 8.68329 7.94162 8.66904H13.0597L13.0596 8.66895Z" fill="black"/>
<path opacity="0.2" d="M13.0597 8.66895V17.136C13.0555 17.6983 12.6007 18.1532 12.0383 18.1574H7.21599C7.02062 17.5169 6.92095 16.8511 6.92021 16.1815V9.7406C6.9068 9.16282 7.36383 8.68329 7.94162 8.66904L13.0597 8.66895Z" fill="black"/>
<path opacity="0.2" d="M12.5016 8.66895V17.136C12.4973 17.6983 12.0425 18.1532 11.4802 18.1574H7.21599C7.02062 17.5169 6.92095 16.8511 6.92021 16.1815V9.7406C6.9068 9.16282 7.36383 8.68329 7.94162 8.66904L12.5016 8.66895Z" fill="black"/>
<path opacity="0.1" d="M13.6171 5.78337V7.54146C13.5222 7.54709 13.4329 7.55271 13.338 7.55271C13.2431 7.55271 13.1538 7.54709 13.0589 7.54146C12.8705 7.52898 12.6837 7.4991 12.5008 7.45221C11.9436 7.32026 11.4255 7.05829 10.989 6.68773C10.5525 6.31716 10.2098 5.84853 9.98914 5.32015C9.91212 5.14014 9.85233 4.95325 9.81055 4.76196H12.5957C13.1588 4.76412 13.6149 5.22012 13.6171 5.78337Z" fill="black"/>
<path opacity="0.2" d="M13.0599 6.3415V7.5415C12.8715 7.52902 12.6847 7.49914 12.5018 7.45225C11.9446 7.32029 11.4266 7.05831 10.9901 6.68775C10.5535 6.31718 10.2109 5.84856 9.99023 5.32019H12.0385C12.6017 5.32225 13.0577 5.77835 13.0599 6.3415Z" fill="black"/>
<path opacity="0.2" d="M13.0599 6.3415V7.5415C12.8715 7.52902 12.6847 7.49914 12.5018 7.45225C11.9446 7.32029 11.4266 7.05831 10.9901 6.68775C10.5535 6.31718 10.2109 5.84856 9.99023 5.32019H12.0385C12.6017 5.32225 13.0577 5.77835 13.0599 6.3415Z" fill="black"/>
<path opacity="0.2" d="M12.5019 6.34147V7.45222C11.9447 7.32026 11.4266 7.05828 10.9901 6.6877C10.5535 6.31712 10.2109 5.84846 9.99023 5.32007H11.4805C12.0437 5.32222 12.4997 5.77832 12.5019 6.34147Z" fill="black"/>
<path d="M1.24575 5.32004H11.4786C12.0437 5.32004 12.5018 5.7781 12.5018 6.34313V16.576C12.5018 17.1411 12.0437 17.5991 11.4787 17.5991H1.24575C0.680719 17.5991 0.222656 17.1411 0.222656 16.576V6.34323C0.222656 5.77801 0.680719 5.32004 1.24575 5.32004Z" fill="url(#paint0_linear_820_15430)"/>
<path d="M9.05483 9.21484H7.0092V14.7851H5.70598V9.21484H3.66992V8.13428H9.05483V9.21484Z" fill="white"/>
</g>
<defs>
<linearGradient id="paint0_linear_820_15430" x1="213.535" y1="-74.6176" x2="1014.83" y2="1313.17" gradientUnits="userSpaceOnUse">
<stop stop-color="#5A62C3"/>
<stop offset="0.5" stop-color="#4D55BD"/>
<stop offset="1" stop-color="#3940AB"/>
</linearGradient>
<clipPath id="clip0_820_15430">
<rect width="24" height="22.4062" fill="white" transform="translate(0.222656 0.296875)"/>
</clipPath>
</defs>
</svg>
