<svg width="24" height="25" viewBox="0 0 24 25" fill="none" xmlns="http://www.w3.org/2000/svg">
<path d="M11.9992 12.4807V21.4807M11.9992 12.4807L9.49923 14.4807M11.9992 12.4807L14.4992 14.4807M5.03323 9.59766C4.08744 9.83565 3.26111 10.4108 2.70948 11.2151C2.15786 12.0194 1.91891 12.9974 2.03754 13.9654C2.15616 14.9335 2.62419 15.8249 3.35369 16.4722C4.0832 17.1195 5.02396 17.4781 5.99923 17.4807H6.99923" stroke="#091E42" stroke-width="2" stroke-linecap="round" stroke-linejoin="round"/>
<path d="M15.8287 7.61867C15.4869 6.26525 14.6433 5.09242 13.4688 4.33793C12.2944 3.58345 10.877 3.30377 9.50395 3.55558C8.13093 3.80739 6.90503 4.57186 6.07476 5.69401C5.24448 6.81617 4.87195 8.21204 5.03269 9.59867C5.03269 9.59867 5.18569 10.4807 5.49869 10.9807" stroke="#091E42" stroke-width="2" stroke-linecap="round" stroke-linejoin="round"/>
<path d="M17 17.4807C17.706 17.4802 18.404 17.3302 19.0479 17.0406C19.6917 16.7509 20.267 16.3282 20.7357 15.8002C21.2045 15.2722 21.5561 14.6509 21.7674 13.9772C21.9787 13.3036 22.045 12.5928 21.9618 11.8917C21.8786 11.1905 21.6479 10.515 21.2848 9.90945C20.9217 9.30393 20.4345 8.78216 19.8552 8.3785C19.276 7.97484 18.6178 7.69843 17.924 7.56747C17.2302 7.43652 16.5166 7.45398 15.83 7.61871L14.5 7.98071" stroke="#091E42" stroke-width="2" stroke-linecap="round" stroke-linejoin="round"/>
</svg>
