<svg width="14" height="14" viewBox="0 0 14 14" fill="none" xmlns="http://www.w3.org/2000/svg">
<path fill-rule="evenodd" clip-rule="evenodd" d="M0.5 6.60083C0.5 3.01083 3.41 0.10083 7 0.10083C10.59 0.10083 13.5 3.01083 13.5 6.60083C13.5 10.1908 10.59 13.1008 7 13.1008C3.41 13.1008 0.5 10.1908 0.5 6.60083ZM9.40667 5.3915C9.44667 5.3382 9.47561 5.27744 9.49179 5.2128C9.50797 5.14815 9.51107 5.08092 9.5009 5.01507C9.49073 4.94921 9.4675 4.88605 9.43257 4.8293C9.39764 4.77254 9.35172 4.72335 9.2975 4.6846C9.24329 4.64585 9.18188 4.61833 9.11687 4.60365C9.05187 4.58897 8.98459 4.58744 8.91899 4.59914C8.85338 4.61084 8.79078 4.63553 8.73485 4.67177C8.67893 4.70801 8.63081 4.75506 8.59333 4.81016L6.436 7.83016L5.35333 6.7475C5.25855 6.65918 5.13319 6.61109 5.00365 6.61338C4.87412 6.61567 4.75053 6.66814 4.65892 6.75975C4.56731 6.85136 4.51484 6.97495 4.51255 7.10448C4.51026 7.23402 4.55835 7.35938 4.64667 7.45416L6.14667 8.95416C6.19799 9.00545 6.25987 9.04495 6.32799 9.06993C6.39612 9.0949 6.46886 9.10475 6.54118 9.09879C6.61349 9.09282 6.68364 9.07119 6.74675 9.0354C6.80987 8.9996 6.86443 8.9505 6.90667 8.8915L9.40667 5.3915Z" fill="#ABCAA4"/>
</svg>
