<svg width="14" height="14" viewBox="0 0 14 14" fill="none" xmlns="http://www.w3.org/2000/svg">
<path fill-rule="evenodd" clip-rule="evenodd" d="M0.106445 7C0.106445 3.41 3.01645 0.5 6.60645 0.5C10.1964 0.5 13.1064 3.41 13.1064 7C13.1064 10.59 10.1964 13.5 6.60645 13.5C3.01645 13.5 0.106445 10.59 0.106445 7ZM9.01311 5.79067C9.05311 5.73737 9.08205 5.67661 9.09824 5.61197C9.11442 5.54732 9.11752 5.48009 9.10735 5.41424C9.09718 5.34838 9.07394 5.28522 9.03901 5.22847C9.00409 5.17171 8.95816 5.12252 8.90395 5.08377C8.84974 5.04502 8.78832 5.0175 8.72332 5.00282C8.65832 4.98814 8.59103 4.98661 8.52543 4.99831C8.45983 5.01001 8.39722 5.0347 8.3413 5.07094C8.28537 5.10718 8.23726 5.15423 8.19978 5.20933L6.04245 8.22933L4.95978 7.14667C4.865 7.05835 4.73963 7.01026 4.6101 7.01255C4.48056 7.01484 4.35697 7.06731 4.26536 7.15892C4.17376 7.25053 4.12128 7.37412 4.119 7.50365C4.11671 7.63319 4.16479 7.75855 4.25311 7.85333L5.75311 9.35333C5.80444 9.40462 5.86631 9.44412 5.93444 9.4691C6.00256 9.49407 6.07531 9.50392 6.14762 9.49796C6.21993 9.49199 6.29008 9.47036 6.3532 9.43457C6.41631 9.39877 6.47088 9.34967 6.51311 9.29067L9.01311 5.79067Z" fill="#1E4C14"/>
</svg>
