<svg width="24" height="25" viewBox="0 0 24 25" fill="none" xmlns="http://www.w3.org/2000/svg">
<path d="M4.585 14.2893L4.315 14.2773H1.886L5.122 11.0403L5.109 10.7703C5.10417 10.5607 5.01875 10.3611 4.87051 10.2128C4.72226 10.0646 4.52259 9.97916 4.313 9.97433L4.043 9.96133H0L0.014 10.2313C0.048 10.6693 0.367 11.0013 0.808 11.0273L1.078 11.0403H3.508L0.268 14.2773L0.282 14.5463C0.297 14.9793 0.644 15.3263 1.077 15.3423L1.347 15.3553H5.393L5.379 15.0853C5.343 14.6423 5.029 14.3183 4.584 14.2903L4.585 14.2893ZM7.823 9.96133H7.819C7.10411 9.96173 6.41864 10.2462 5.91334 10.7521C5.40805 11.258 5.1243 11.9439 5.1245 12.6591C5.1247 13.3742 5.40883 14.06 5.91441 14.5657C6.41998 15.0713 7.10561 15.3553 7.8205 15.3553C8.53539 15.3553 9.22102 15.0713 9.72659 14.5657C10.2322 14.06 10.5163 13.3742 10.5165 12.6591C10.5167 11.9439 10.233 11.258 9.72766 10.7521C9.22236 10.2462 8.53789 9.96173 7.823 9.96133ZM8.964 13.8023C8.81555 13.9604 8.63685 14.087 8.43851 14.1747C8.24018 14.2624 8.02625 14.3094 7.80942 14.3128C7.59259 14.3162 7.37728 14.2761 7.17627 14.1947C6.97527 14.1133 6.79266 13.9924 6.63928 13.8391C6.48591 13.6858 6.3649 13.5032 6.28343 13.3022C6.20196 13.1013 6.1617 12.886 6.16503 12.6691C6.16836 12.4523 6.21522 12.2384 6.30282 12.04C6.39043 11.8416 6.51699 11.6629 6.675 11.5143C6.98151 11.2262 7.38811 11.0687 7.80871 11.0752C8.22931 11.0817 8.63088 11.2516 8.92839 11.549C9.2259 11.8463 9.39599 12.2478 9.40264 12.6684C9.40928 13.089 9.25197 13.4957 8.964 13.8023ZM21.84 9.96233C21.5345 9.96275 21.2325 10.028 20.9541 10.1539C20.6757 10.2797 20.4272 10.4633 20.225 10.6923C20.0228 10.4621 19.7737 10.2778 19.4945 10.1515C19.2153 10.0253 18.9124 9.96011 18.606 9.96033C18.1753 9.95978 17.7545 10.0887 17.398 10.3303C17.188 10.0973 16.718 9.96033 16.449 9.96033V15.3553L16.719 15.3423C17.169 15.3123 17.497 14.9933 17.515 14.5463L17.528 14.2763V12.3873L17.542 12.1173C17.552 11.9153 17.582 11.7353 17.674 11.5773C17.8173 11.3297 18.053 11.1492 18.3292 11.0755C18.6054 11.0018 18.8996 11.0409 19.147 11.1843C19.3099 11.2784 19.4454 11.4136 19.54 11.5763C19.633 11.7363 19.66 11.9163 19.672 12.1163L19.686 12.3873V14.2763L19.699 14.5453C19.7074 14.7536 19.7938 14.9511 19.9411 15.0986C20.0884 15.246 20.2857 15.3327 20.494 15.3413L20.764 15.3543V12.3873L20.776 12.1173C20.786 11.9173 20.816 11.7333 20.91 11.5743C21.21 11.0603 21.87 10.8843 22.383 11.1843C22.5461 11.2787 22.6816 11.4142 22.776 11.5773C22.868 11.7373 22.896 11.9203 22.906 12.1173L22.921 12.3873V14.2763L22.934 14.5453C22.962 14.9883 23.284 15.3153 23.73 15.3413L24 15.3543V12.1173C23.9997 11.8339 23.9437 11.5534 23.835 11.2917C23.7263 11.0299 23.5671 10.7922 23.3665 10.592C23.1659 10.3918 22.9279 10.233 22.666 10.1248C22.4041 10.0166 22.1234 9.96207 21.84 9.96233ZM11.577 10.7503C11.3155 10.9982 11.1063 11.2959 10.9617 11.6259C10.8172 11.9559 10.7401 12.3116 10.7352 12.6718C10.7302 13.0321 10.7975 13.3898 10.9329 13.7236C11.0684 14.0575 11.2694 14.3609 11.524 14.6158C11.7785 14.8707 12.0816 15.072 12.4152 15.2078C12.7488 15.3437 13.1062 15.4113 13.4664 15.4067C13.8266 15.4021 14.1822 15.3253 14.5122 15.181C14.8422 15.0367 15.14 14.8277 15.388 14.5663C15.8719 14.0563 16.1377 13.3775 16.1287 12.6744C16.1197 11.9713 15.8367 11.2995 15.3399 10.802C14.8431 10.3046 14.1718 10.0208 13.4689 10.0111C12.7661 10.0015 12.0873 10.2667 11.577 10.7503ZM14.627 13.8023C14.4772 13.9551 14.2986 14.0766 14.1015 14.1599C13.9044 14.2432 13.6928 14.2866 13.4788 14.2876C13.2649 14.2886 13.0528 14.2472 12.855 14.1658C12.6571 14.0844 12.4774 13.9645 12.3261 13.8132C12.1749 13.6619 12.0551 13.4821 11.9738 13.2842C11.8924 13.0863 11.8511 12.8742 11.8522 12.6603C11.8533 12.4463 11.8968 12.2347 11.9802 12.0377C12.0636 11.8406 12.1852 11.6621 12.338 11.5123C12.6427 11.2137 13.0529 11.0475 13.4795 11.0497C13.9061 11.0519 14.3146 11.2224 14.6162 11.5241C14.9178 11.8258 15.0882 12.2344 15.0902 12.661C15.0922 13.0876 14.9257 13.4978 14.627 13.8023Z" fill="#0047B3"/>
</svg>
